<mxfile host="app.diagrams.net" modified="2023-05-07T14:12:59.423Z" agent="Mozilla/5.0 (Windows NT 10.0; Win64; x64) AppleWebKit/537.36 (KHTML, like Gecko) Chrome/113.0.0.0 Safari/537.36" etag="JOU9zptz_ZeQXj1vrRxc" version="21.2.9" type="device">
  <diagram name="PÃ¡gina-1" id="rWZ2rTpPqTraY5aUIdDc">
    <mxGraphModel dx="728" dy="397" grid="1" gridSize="10" guides="1" tooltips="1" connect="1" arrows="1" fold="1" page="1" pageScale="1" pageWidth="827" pageHeight="1169" background="#ffffff" math="0" shadow="0">
      <root>
        <mxCell id="0" />
        <mxCell id="1" parent="0" />
        <mxCell id="xjsMLf60iEJALXMGOspW-1" value="&lt;ul&gt;&lt;li&gt;User&lt;/li&gt;&lt;ul&gt;&lt;li&gt;MarketingRep&lt;/li&gt;&lt;/ul&gt;&lt;li&gt;Report&lt;/li&gt;&lt;li&gt;Form&lt;/li&gt;&lt;li&gt;Journey&lt;/li&gt;&lt;li&gt;Reminder&lt;/li&gt;&lt;li&gt;Message&lt;/li&gt;&lt;ul&gt;&lt;li&gt;Email&lt;/li&gt;&lt;li&gt;SMS&lt;/li&gt;&lt;li&gt;ExternalChannel&lt;/li&gt;&lt;/ul&gt;&lt;li&gt;Customer&lt;/li&gt;&lt;/ul&gt;" style="text;html=1;strokeColor=none;fillColor=none;align=left;verticalAlign=middle;whiteSpace=wrap;rounded=0;fontFamily=Coming Soon;fontSource=https%3A%2F%2Ffonts.googleapis.com%2Fcss%3Ffamily%3DComing%2BSoon;fontStyle=1" parent="1" vertex="1">
          <mxGeometry x="40" y="40" width="200" height="200" as="geometry" />
        </mxCell>
        <mxCell id="xjsMLf60iEJALXMGOspW-2" value="&lt;h2&gt;&lt;font data-font-src=&quot;https://fonts.googleapis.com/css?family=Coming+Soon&quot; face=&quot;Coming Soon&quot;&gt;&lt;u&gt;Marketing Automation System - Class Diagram&lt;/u&gt;&lt;/font&gt;&lt;/h2&gt;" style="text;html=1;strokeColor=none;fillColor=none;align=center;verticalAlign=middle;whiteSpace=wrap;rounded=0;" parent="1" vertex="1">
          <mxGeometry x="280" y="40" width="400" height="30" as="geometry" />
        </mxCell>
        <mxCell id="CFD9F3xo60o9tHj610fw-1" value="User" style="swimlane;fontStyle=1;align=center;verticalAlign=top;horizontal=1;startSize=26;horizontalStack=0;resizeParent=1;resizeParentMax=0;resizeLast=0;collapsible=1;marginBottom=0;whiteSpace=wrap;html=1;" parent="1" vertex="1">
          <mxGeometry x="80" y="280" width="160" height="104" as="geometry" />
        </mxCell>
        <mxCell id="CFD9F3xo60o9tHj610fw-2" value="+ userName&lt;br&gt;- passWord" style="text;strokeColor=none;fillColor=none;align=left;verticalAlign=top;spacingLeft=4;spacingRight=4;overflow=hidden;rotatable=0;points=[[0,0.5],[1,0.5]];portConstraint=eastwest;whiteSpace=wrap;html=1;" parent="CFD9F3xo60o9tHj610fw-1" vertex="1">
          <mxGeometry x="5" y="26" width="150" height="44" as="geometry" />
        </mxCell>
        <mxCell id="CFD9F3xo60o9tHj610fw-3" value="" style="line;strokeWidth=1;fillColor=none;align=left;verticalAlign=middle;spacingTop=-1;spacingLeft=3;spacingRight=3;rotatable=0;labelPosition=right;points=[];portConstraint=eastwest;strokeColor=inherit;" parent="CFD9F3xo60o9tHj610fw-1" vertex="1">
          <mxGeometry y="70" width="160" height="8" as="geometry" />
        </mxCell>
        <mxCell id="CFD9F3xo60o9tHj610fw-4" value="+ login()" style="text;strokeColor=none;fillColor=none;align=left;verticalAlign=top;spacingLeft=4;spacingRight=4;overflow=hidden;rotatable=0;points=[[0,0.5],[1,0.5]];portConstraint=eastwest;whiteSpace=wrap;html=1;" parent="CFD9F3xo60o9tHj610fw-1" vertex="1">
          <mxGeometry x="10" y="78" width="140" height="22" as="geometry" />
        </mxCell>
        <mxCell id="CFD9F3xo60o9tHj610fw-5" value="Customer" style="swimlane;fontStyle=1;align=center;verticalAlign=top;childLayout=stackLayout;horizontal=1;startSize=26;horizontalStack=0;resizeParent=1;resizeParentMax=0;resizeLast=0;collapsible=1;marginBottom=0;whiteSpace=wrap;html=1;" parent="1" vertex="1">
          <mxGeometry x="560" y="280" width="160" height="230" as="geometry" />
        </mxCell>
        <mxCell id="CFD9F3xo60o9tHj610fw-6" value="+ customerID&lt;br&gt;+ assignedRep&lt;br&gt;+ name&lt;br&gt;+ location&lt;br&gt;+ phoneNumber&lt;br&gt;+ emailAddress&lt;br&gt;+ slackChannel&lt;br&gt;+ slackName&lt;br&gt;+ hipchatName&lt;br&gt;+ preferredCommMethod" style="text;strokeColor=none;fillColor=none;align=left;verticalAlign=top;spacingLeft=4;spacingRight=4;overflow=hidden;rotatable=0;points=[[0,0.5],[1,0.5]];portConstraint=eastwest;whiteSpace=wrap;html=1;" parent="CFD9F3xo60o9tHj610fw-5" vertex="1">
          <mxGeometry y="26" width="160" height="154" as="geometry" />
        </mxCell>
        <mxCell id="CFD9F3xo60o9tHj610fw-7" value="" style="line;strokeWidth=1;fillColor=none;align=left;verticalAlign=middle;spacingTop=-1;spacingLeft=3;spacingRight=3;rotatable=0;labelPosition=right;points=[];portConstraint=eastwest;strokeColor=inherit;" parent="CFD9F3xo60o9tHj610fw-5" vertex="1">
          <mxGeometry y="180" width="160" height="8" as="geometry" />
        </mxCell>
        <mxCell id="CFD9F3xo60o9tHj610fw-8" value="+ viewForm()&lt;br&gt;+ submitForm()" style="text;strokeColor=none;fillColor=none;align=left;verticalAlign=top;spacingLeft=4;spacingRight=4;overflow=hidden;rotatable=0;points=[[0,0.5],[1,0.5]];portConstraint=eastwest;whiteSpace=wrap;html=1;" parent="CFD9F3xo60o9tHj610fw-5" vertex="1">
          <mxGeometry y="188" width="160" height="42" as="geometry" />
        </mxCell>
        <mxCell id="CFD9F3xo60o9tHj610fw-44" style="edgeStyle=orthogonalEdgeStyle;rounded=0;orthogonalLoop=1;jettySize=auto;html=1;exitX=0.5;exitY=0;exitDx=0;exitDy=0;entryX=0.502;entryY=0.974;entryDx=0;entryDy=0;entryPerimeter=0;endArrow=none;endFill=0;" parent="1" source="CFD9F3xo60o9tHj610fw-9" target="CFD9F3xo60o9tHj610fw-43" edge="1">
          <mxGeometry relative="1" as="geometry" />
        </mxCell>
        <mxCell id="CFD9F3xo60o9tHj610fw-45" value="1" style="edgeLabel;html=1;align=right;verticalAlign=middle;resizable=0;points=[];labelPosition=left;verticalLabelPosition=middle;labelBackgroundColor=none;" parent="CFD9F3xo60o9tHj610fw-44" vertex="1" connectable="0">
          <mxGeometry x="0.6493" relative="1" as="geometry">
            <mxPoint y="-1" as="offset" />
          </mxGeometry>
        </mxCell>
        <mxCell id="CFD9F3xo60o9tHj610fw-46" value="0..*" style="edgeLabel;html=1;align=left;verticalAlign=middle;resizable=0;points=[];labelPosition=right;verticalLabelPosition=middle;labelBackgroundColor=none;" parent="CFD9F3xo60o9tHj610fw-44" vertex="1" connectable="0">
          <mxGeometry x="-0.7063" relative="1" as="geometry">
            <mxPoint as="offset" />
          </mxGeometry>
        </mxCell>
        <mxCell id="CFD9F3xo60o9tHj610fw-9" value="Mesage" style="swimlane;fontStyle=1;align=center;verticalAlign=top;childLayout=stackLayout;horizontal=1;startSize=26;horizontalStack=0;resizeParent=1;resizeParentMax=0;resizeLast=0;collapsible=1;marginBottom=0;whiteSpace=wrap;html=1;" parent="1" vertex="1">
          <mxGeometry x="320" y="640" width="160" height="160" as="geometry" />
        </mxCell>
        <mxCell id="CFD9F3xo60o9tHj610fw-10" value="+ customerID&lt;br&gt;+ assignedRep&lt;br&gt;+ preferredCommMethod&lt;br&gt;+ messageContent&lt;br&gt;+ sendDate" style="text;strokeColor=none;fillColor=none;align=left;verticalAlign=top;spacingLeft=4;spacingRight=4;overflow=hidden;rotatable=0;points=[[0,0.5],[1,0.5]];portConstraint=eastwest;whiteSpace=wrap;html=1;" parent="CFD9F3xo60o9tHj610fw-9" vertex="1">
          <mxGeometry y="26" width="160" height="84" as="geometry" />
        </mxCell>
        <mxCell id="CFD9F3xo60o9tHj610fw-11" value="" style="line;strokeWidth=1;fillColor=none;align=left;verticalAlign=middle;spacingTop=-1;spacingLeft=3;spacingRight=3;rotatable=0;labelPosition=right;points=[];portConstraint=eastwest;strokeColor=inherit;" parent="CFD9F3xo60o9tHj610fw-9" vertex="1">
          <mxGeometry y="110" width="160" height="8" as="geometry" />
        </mxCell>
        <mxCell id="CFD9F3xo60o9tHj610fw-12" value="+ sendMessage()&lt;br&gt;+ recordHistory()" style="text;strokeColor=none;fillColor=none;align=left;verticalAlign=top;spacingLeft=4;spacingRight=4;overflow=hidden;rotatable=0;points=[[0,0.5],[1,0.5]];portConstraint=eastwest;whiteSpace=wrap;html=1;" parent="CFD9F3xo60o9tHj610fw-9" vertex="1">
          <mxGeometry y="118" width="160" height="42" as="geometry" />
        </mxCell>
        <mxCell id="CFD9F3xo60o9tHj610fw-19" value="" style="edgeStyle=orthogonalEdgeStyle;rounded=0;orthogonalLoop=1;jettySize=auto;html=1;exitX=0.5;exitY=0;exitDx=0;exitDy=0;endArrow=block;endFill=0;entryX=0.5;entryY=1;entryDx=0;entryDy=0;" parent="1" source="CFD9F3xo60o9tHj610fw-13" target="CFD9F3xo60o9tHj610fw-1" edge="1">
          <mxGeometry relative="1" as="geometry">
            <mxPoint x="220" y="410" as="targetPoint" />
          </mxGeometry>
        </mxCell>
        <mxCell id="CFD9F3xo60o9tHj610fw-28" value="1" style="edgeLabel;html=1;align=left;verticalAlign=middle;resizable=0;points=[];labelPosition=right;verticalLabelPosition=middle;labelBackgroundColor=none;" parent="CFD9F3xo60o9tHj610fw-19" vertex="1" connectable="0">
          <mxGeometry x="-0.5753" relative="1" as="geometry">
            <mxPoint as="offset" />
          </mxGeometry>
        </mxCell>
        <mxCell id="CFD9F3xo60o9tHj610fw-29" value="1" style="edgeLabel;html=1;align=right;verticalAlign=middle;resizable=0;points=[];labelPosition=left;verticalLabelPosition=middle;labelBackgroundColor=none;" parent="CFD9F3xo60o9tHj610fw-19" vertex="1" connectable="0">
          <mxGeometry x="0.4707" relative="1" as="geometry">
            <mxPoint as="offset" />
          </mxGeometry>
        </mxCell>
        <mxCell id="CFD9F3xo60o9tHj610fw-13" value="MarketingRep" style="swimlane;fontStyle=1;align=center;verticalAlign=top;childLayout=stackLayout;horizontal=1;startSize=26;horizontalStack=0;resizeParent=1;resizeParentMax=0;resizeLast=0;collapsible=1;marginBottom=0;whiteSpace=wrap;html=1;" parent="1" vertex="1">
          <mxGeometry x="80" y="440" width="160" height="140" as="geometry" />
        </mxCell>
        <mxCell id="CFD9F3xo60o9tHj610fw-14" value="+ name&lt;br&gt;+ company&lt;br&gt;+ region" style="text;strokeColor=none;fillColor=none;align=left;verticalAlign=top;spacingLeft=4;spacingRight=4;overflow=hidden;rotatable=0;points=[[0,0.5],[1,0.5]];portConstraint=eastwest;whiteSpace=wrap;html=1;" parent="CFD9F3xo60o9tHj610fw-13" vertex="1">
          <mxGeometry y="26" width="160" height="54" as="geometry" />
        </mxCell>
        <mxCell id="CFD9F3xo60o9tHj610fw-15" value="" style="line;strokeWidth=1;fillColor=none;align=left;verticalAlign=middle;spacingTop=-1;spacingLeft=3;spacingRight=3;rotatable=0;labelPosition=right;points=[];portConstraint=eastwest;strokeColor=inherit;" parent="CFD9F3xo60o9tHj610fw-13" vertex="1">
          <mxGeometry y="80" width="160" height="8" as="geometry" />
        </mxCell>
        <mxCell id="CFD9F3xo60o9tHj610fw-16" value="+ generateForm()&lt;br&gt;+ generateReport()&lt;br&gt;+ updateJourney()" style="text;strokeColor=none;fillColor=none;align=left;verticalAlign=top;spacingLeft=4;spacingRight=4;overflow=hidden;rotatable=0;points=[[0,0.5],[1,0.5]];portConstraint=eastwest;whiteSpace=wrap;html=1;" parent="CFD9F3xo60o9tHj610fw-13" vertex="1">
          <mxGeometry y="88" width="160" height="52" as="geometry" />
        </mxCell>
        <mxCell id="CFD9F3xo60o9tHj610fw-20" value="Report" style="swimlane;fontStyle=1;align=center;verticalAlign=top;childLayout=stackLayout;horizontal=1;startSize=26;horizontalStack=0;resizeParent=1;resizeParentMax=0;resizeLast=0;collapsible=1;marginBottom=0;whiteSpace=wrap;html=1;" parent="1" vertex="1">
          <mxGeometry x="80" y="640" width="160" height="112" as="geometry" />
        </mxCell>
        <mxCell id="CFD9F3xo60o9tHj610fw-21" value="+ id&lt;br&gt;+ reportName&lt;br&gt;+ reportContent" style="text;strokeColor=none;fillColor=none;align=left;verticalAlign=top;spacingLeft=4;spacingRight=4;overflow=hidden;rotatable=0;points=[[0,0.5],[1,0.5]];portConstraint=eastwest;whiteSpace=wrap;html=1;" parent="CFD9F3xo60o9tHj610fw-20" vertex="1">
          <mxGeometry y="26" width="160" height="52" as="geometry" />
        </mxCell>
        <mxCell id="CFD9F3xo60o9tHj610fw-22" value="" style="line;strokeWidth=1;fillColor=none;align=left;verticalAlign=middle;spacingTop=-1;spacingLeft=3;spacingRight=3;rotatable=0;labelPosition=right;points=[];portConstraint=eastwest;strokeColor=inherit;" parent="CFD9F3xo60o9tHj610fw-20" vertex="1">
          <mxGeometry y="78" width="160" height="8" as="geometry" />
        </mxCell>
        <mxCell id="CFD9F3xo60o9tHj610fw-23" value="+ viewReport()" style="text;strokeColor=none;fillColor=none;align=left;verticalAlign=top;spacingLeft=4;spacingRight=4;overflow=hidden;rotatable=0;points=[[0,0.5],[1,0.5]];portConstraint=eastwest;whiteSpace=wrap;html=1;" parent="CFD9F3xo60o9tHj610fw-20" vertex="1">
          <mxGeometry y="86" width="160" height="26" as="geometry" />
        </mxCell>
        <mxCell id="CFD9F3xo60o9tHj610fw-25" value="" style="endArrow=none;html=1;edgeStyle=orthogonalEdgeStyle;rounded=0;exitX=0.5;exitY=0;exitDx=0;exitDy=0;" parent="1" source="CFD9F3xo60o9tHj610fw-20" edge="1">
          <mxGeometry relative="1" as="geometry">
            <mxPoint x="330" y="570" as="sourcePoint" />
            <mxPoint x="160" y="580" as="targetPoint" />
          </mxGeometry>
        </mxCell>
        <mxCell id="CFD9F3xo60o9tHj610fw-26" value="0..*" style="edgeLabel;resizable=0;html=1;align=left;verticalAlign=bottom;labelBackgroundColor=none;" parent="CFD9F3xo60o9tHj610fw-25" connectable="0" vertex="1">
          <mxGeometry x="-1" relative="1" as="geometry" />
        </mxCell>
        <mxCell id="CFD9F3xo60o9tHj610fw-27" value="0..*" style="edgeLabel;resizable=0;html=1;align=right;verticalAlign=bottom;labelBackgroundColor=none;" parent="CFD9F3xo60o9tHj610fw-25" connectable="0" vertex="1">
          <mxGeometry x="1" relative="1" as="geometry">
            <mxPoint y="14" as="offset" />
          </mxGeometry>
        </mxCell>
        <mxCell id="CFD9F3xo60o9tHj610fw-30" value="Form" style="swimlane;fontStyle=1;align=center;verticalAlign=top;childLayout=stackLayout;horizontal=1;startSize=26;horizontalStack=0;resizeParent=1;resizeParentMax=0;resizeLast=0;collapsible=1;marginBottom=0;whiteSpace=wrap;html=1;" parent="1" vertex="1">
          <mxGeometry x="320" y="280" width="160" height="112" as="geometry" />
        </mxCell>
        <mxCell id="CFD9F3xo60o9tHj610fw-31" value="+ customerID&lt;br&gt;+assignedRep&lt;br&gt;+ formContent" style="text;strokeColor=none;fillColor=none;align=left;verticalAlign=top;spacingLeft=4;spacingRight=4;overflow=hidden;rotatable=0;points=[[0,0.5],[1,0.5]];portConstraint=eastwest;whiteSpace=wrap;html=1;" parent="CFD9F3xo60o9tHj610fw-30" vertex="1">
          <mxGeometry y="26" width="160" height="52" as="geometry" />
        </mxCell>
        <mxCell id="CFD9F3xo60o9tHj610fw-32" value="" style="line;strokeWidth=1;fillColor=none;align=left;verticalAlign=middle;spacingTop=-1;spacingLeft=3;spacingRight=3;rotatable=0;labelPosition=right;points=[];portConstraint=eastwest;strokeColor=inherit;" parent="CFD9F3xo60o9tHj610fw-30" vertex="1">
          <mxGeometry y="78" width="160" height="8" as="geometry" />
        </mxCell>
        <mxCell id="CFD9F3xo60o9tHj610fw-33" value="+ displayForm()" style="text;strokeColor=none;fillColor=none;align=left;verticalAlign=top;spacingLeft=4;spacingRight=4;overflow=hidden;rotatable=0;points=[[0,0.5],[1,0.5]];portConstraint=eastwest;whiteSpace=wrap;html=1;" parent="CFD9F3xo60o9tHj610fw-30" vertex="1">
          <mxGeometry y="86" width="160" height="26" as="geometry" />
        </mxCell>
        <mxCell id="CFD9F3xo60o9tHj610fw-34" style="edgeStyle=orthogonalEdgeStyle;rounded=0;orthogonalLoop=1;jettySize=auto;html=1;exitX=1;exitY=0.5;exitDx=0;exitDy=0;entryX=0;entryY=0.5;entryDx=0;entryDy=0;endArrow=none;endFill=0;" parent="1" source="CFD9F3xo60o9tHj610fw-14" target="CFD9F3xo60o9tHj610fw-31" edge="1">
          <mxGeometry relative="1" as="geometry" />
        </mxCell>
        <mxCell id="CFD9F3xo60o9tHj610fw-35" value="1..*" style="edgeLabel;html=1;align=center;verticalAlign=bottom;resizable=0;points=[];labelPosition=center;verticalLabelPosition=top;labelBackgroundColor=none;" parent="CFD9F3xo60o9tHj610fw-34" vertex="1" connectable="0">
          <mxGeometry x="-0.8314" y="2" relative="1" as="geometry">
            <mxPoint y="4" as="offset" />
          </mxGeometry>
        </mxCell>
        <mxCell id="CFD9F3xo60o9tHj610fw-36" value="0..*" style="edgeLabel;html=1;align=center;verticalAlign=bottom;resizable=0;points=[];labelPosition=center;verticalLabelPosition=top;labelBackgroundColor=none;" parent="CFD9F3xo60o9tHj610fw-34" vertex="1" connectable="0">
          <mxGeometry x="0.9239" relative="1" as="geometry">
            <mxPoint x="-10" as="offset" />
          </mxGeometry>
        </mxCell>
        <mxCell id="CFD9F3xo60o9tHj610fw-37" style="edgeStyle=orthogonalEdgeStyle;rounded=0;orthogonalLoop=1;jettySize=auto;html=1;exitX=1;exitY=0.5;exitDx=0;exitDy=0;entryX=0;entryY=0.5;entryDx=0;entryDy=0;endArrow=none;endFill=0;" parent="1" source="CFD9F3xo60o9tHj610fw-31" target="CFD9F3xo60o9tHj610fw-5" edge="1">
          <mxGeometry relative="1" as="geometry" />
        </mxCell>
        <mxCell id="CFD9F3xo60o9tHj610fw-38" value="1" style="edgeLabel;html=1;align=center;verticalAlign=bottom;resizable=0;points=[];labelPosition=center;verticalLabelPosition=top;labelBackgroundColor=none;" parent="CFD9F3xo60o9tHj610fw-37" vertex="1" connectable="0">
          <mxGeometry x="-0.8205" relative="1" as="geometry">
            <mxPoint as="offset" />
          </mxGeometry>
        </mxCell>
        <mxCell id="CFD9F3xo60o9tHj610fw-39" value="0..*" style="edgeLabel;html=1;align=center;verticalAlign=bottom;resizable=0;points=[];labelPosition=center;verticalLabelPosition=top;labelBackgroundColor=none;" parent="CFD9F3xo60o9tHj610fw-37" vertex="1" connectable="0">
          <mxGeometry x="0.8531" relative="1" as="geometry">
            <mxPoint as="offset" />
          </mxGeometry>
        </mxCell>
        <mxCell id="CFD9F3xo60o9tHj610fw-40" value="Journey" style="swimlane;fontStyle=1;align=center;verticalAlign=top;childLayout=stackLayout;horizontal=1;startSize=26;horizontalStack=0;resizeParent=1;resizeParentMax=0;resizeLast=0;collapsible=1;marginBottom=0;whiteSpace=wrap;html=1;" parent="1" vertex="1">
          <mxGeometry x="320" y="440" width="160" height="142" as="geometry" />
        </mxCell>
        <mxCell id="CFD9F3xo60o9tHj610fw-41" value="+ id&lt;br&gt;+ Name&lt;br&gt;+ customerID&lt;br&gt;+ assignedRep&lt;br&gt;+ messageHistory: list" style="text;strokeColor=none;fillColor=none;align=left;verticalAlign=top;spacingLeft=4;spacingRight=4;overflow=hidden;rotatable=0;points=[[0,0.5],[1,0.5]];portConstraint=eastwest;whiteSpace=wrap;html=1;" parent="CFD9F3xo60o9tHj610fw-40" vertex="1">
          <mxGeometry y="26" width="160" height="82" as="geometry" />
        </mxCell>
        <mxCell id="CFD9F3xo60o9tHj610fw-42" value="" style="line;strokeWidth=1;fillColor=none;align=left;verticalAlign=middle;spacingTop=-1;spacingLeft=3;spacingRight=3;rotatable=0;labelPosition=right;points=[];portConstraint=eastwest;strokeColor=inherit;" parent="CFD9F3xo60o9tHj610fw-40" vertex="1">
          <mxGeometry y="108" width="160" height="8" as="geometry" />
        </mxCell>
        <mxCell id="CFD9F3xo60o9tHj610fw-43" value="+ scheduleMessage()" style="text;strokeColor=none;fillColor=none;align=left;verticalAlign=top;spacingLeft=4;spacingRight=4;overflow=hidden;rotatable=0;points=[[0,0.5],[1,0.5]];portConstraint=eastwest;whiteSpace=wrap;html=1;" parent="CFD9F3xo60o9tHj610fw-40" vertex="1">
          <mxGeometry y="116" width="160" height="26" as="geometry" />
        </mxCell>
        <mxCell id="CFD9F3xo60o9tHj610fw-47" value="SMS" style="swimlane;fontStyle=1;align=center;verticalAlign=top;childLayout=stackLayout;horizontal=1;startSize=26;horizontalStack=0;resizeParent=1;resizeParentMax=0;resizeLast=0;collapsible=1;marginBottom=0;whiteSpace=wrap;html=1;" parent="1" vertex="1">
          <mxGeometry x="560" y="657" width="160" height="102" as="geometry" />
        </mxCell>
        <mxCell id="CFD9F3xo60o9tHj610fw-48" value="+ countryCode&lt;br&gt;+ phoneNumber" style="text;strokeColor=none;fillColor=none;align=left;verticalAlign=top;spacingLeft=4;spacingRight=4;overflow=hidden;rotatable=0;points=[[0,0.5],[1,0.5]];portConstraint=eastwest;whiteSpace=wrap;html=1;" parent="CFD9F3xo60o9tHj610fw-47" vertex="1">
          <mxGeometry y="26" width="160" height="42" as="geometry" />
        </mxCell>
        <mxCell id="CFD9F3xo60o9tHj610fw-49" value="" style="line;strokeWidth=1;fillColor=none;align=left;verticalAlign=middle;spacingTop=-1;spacingLeft=3;spacingRight=3;rotatable=0;labelPosition=right;points=[];portConstraint=eastwest;strokeColor=inherit;" parent="CFD9F3xo60o9tHj610fw-47" vertex="1">
          <mxGeometry y="68" width="160" height="8" as="geometry" />
        </mxCell>
        <mxCell id="CFD9F3xo60o9tHj610fw-50" value="+ sendSMS()" style="text;strokeColor=none;fillColor=none;align=left;verticalAlign=top;spacingLeft=4;spacingRight=4;overflow=hidden;rotatable=0;points=[[0,0.5],[1,0.5]];portConstraint=eastwest;whiteSpace=wrap;html=1;" parent="CFD9F3xo60o9tHj610fw-47" vertex="1">
          <mxGeometry y="76" width="160" height="26" as="geometry" />
        </mxCell>
        <mxCell id="CFD9F3xo60o9tHj610fw-51" value="" style="edgeStyle=orthogonalEdgeStyle;rounded=0;orthogonalLoop=1;jettySize=auto;html=1;exitX=1;exitY=0.5;exitDx=0;exitDy=0;entryX=0;entryY=0.5;entryDx=0;entryDy=0;endArrow=none;endFill=0;startArrow=block;startFill=0;" parent="1" source="CFD9F3xo60o9tHj610fw-10" target="CFD9F3xo60o9tHj610fw-47" edge="1">
          <mxGeometry relative="1" as="geometry" />
        </mxCell>
        <mxCell id="CFD9F3xo60o9tHj610fw-52" value="0..*" style="edgeLabel;html=1;align=center;verticalAlign=bottom;resizable=0;points=[];labelPosition=center;verticalLabelPosition=top;labelBackgroundColor=none;" parent="CFD9F3xo60o9tHj610fw-51" vertex="1" connectable="0">
          <mxGeometry x="-0.6792" relative="1" as="geometry">
            <mxPoint as="offset" />
          </mxGeometry>
        </mxCell>
        <mxCell id="CFD9F3xo60o9tHj610fw-54" value="0..*" style="edgeLabel;html=1;align=center;verticalAlign=top;resizable=0;points=[];labelBackgroundColor=none;labelPosition=center;verticalLabelPosition=bottom;" parent="CFD9F3xo60o9tHj610fw-51" vertex="1" connectable="0">
          <mxGeometry x="0.8" relative="1" as="geometry">
            <mxPoint as="offset" />
          </mxGeometry>
        </mxCell>
        <mxCell id="CFD9F3xo60o9tHj610fw-55" value="E-mail" style="swimlane;fontStyle=1;align=center;verticalAlign=top;childLayout=stackLayout;horizontal=1;startSize=26;horizontalStack=0;resizeParent=1;resizeParentMax=0;resizeLast=0;collapsible=1;marginBottom=0;whiteSpace=wrap;html=1;" parent="1" vertex="1">
          <mxGeometry x="560" y="540" width="160" height="112" as="geometry" />
        </mxCell>
        <mxCell id="CFD9F3xo60o9tHj610fw-56" value="+ emailAddress&lt;br&gt;+ isHTML&lt;br&gt;+ encoding" style="text;strokeColor=none;fillColor=none;align=left;verticalAlign=top;spacingLeft=4;spacingRight=4;overflow=hidden;rotatable=0;points=[[0,0.5],[1,0.5]];portConstraint=eastwest;whiteSpace=wrap;html=1;" parent="CFD9F3xo60o9tHj610fw-55" vertex="1">
          <mxGeometry y="26" width="160" height="52" as="geometry" />
        </mxCell>
        <mxCell id="CFD9F3xo60o9tHj610fw-57" value="" style="line;strokeWidth=1;fillColor=none;align=left;verticalAlign=middle;spacingTop=-1;spacingLeft=3;spacingRight=3;rotatable=0;labelPosition=right;points=[];portConstraint=eastwest;strokeColor=inherit;" parent="CFD9F3xo60o9tHj610fw-55" vertex="1">
          <mxGeometry y="78" width="160" height="8" as="geometry" />
        </mxCell>
        <mxCell id="CFD9F3xo60o9tHj610fw-58" value="+ sendEmail()" style="text;strokeColor=none;fillColor=none;align=left;verticalAlign=top;spacingLeft=4;spacingRight=4;overflow=hidden;rotatable=0;points=[[0,0.5],[1,0.5]];portConstraint=eastwest;whiteSpace=wrap;html=1;" parent="CFD9F3xo60o9tHj610fw-55" vertex="1">
          <mxGeometry y="86" width="160" height="26" as="geometry" />
        </mxCell>
        <mxCell id="CFD9F3xo60o9tHj610fw-59" value="ExternalChannel" style="swimlane;fontStyle=1;align=center;verticalAlign=top;childLayout=stackLayout;horizontal=1;startSize=26;horizontalStack=0;resizeParent=1;resizeParentMax=0;resizeLast=0;collapsible=1;marginBottom=0;whiteSpace=wrap;html=1;" parent="1" vertex="1">
          <mxGeometry x="560" y="764" width="160" height="100" as="geometry" />
        </mxCell>
        <mxCell id="CFD9F3xo60o9tHj610fw-60" value="+ channelChoice" style="text;strokeColor=none;fillColor=none;align=left;verticalAlign=top;spacingLeft=4;spacingRight=4;overflow=hidden;rotatable=0;points=[[0,0.5],[1,0.5]];portConstraint=eastwest;whiteSpace=wrap;html=1;" parent="CFD9F3xo60o9tHj610fw-59" vertex="1">
          <mxGeometry y="26" width="160" height="24" as="geometry" />
        </mxCell>
        <mxCell id="CFD9F3xo60o9tHj610fw-61" value="" style="line;strokeWidth=1;fillColor=none;align=left;verticalAlign=middle;spacingTop=-1;spacingLeft=3;spacingRight=3;rotatable=0;labelPosition=right;points=[];portConstraint=eastwest;strokeColor=inherit;" parent="CFD9F3xo60o9tHj610fw-59" vertex="1">
          <mxGeometry y="50" width="160" height="8" as="geometry" />
        </mxCell>
        <mxCell id="CFD9F3xo60o9tHj610fw-62" value="+ sendSlack()&lt;br&gt;+ sendHipChat()" style="text;strokeColor=none;fillColor=none;align=left;verticalAlign=top;spacingLeft=4;spacingRight=4;overflow=hidden;rotatable=0;points=[[0,0.5],[1,0.5]];portConstraint=eastwest;whiteSpace=wrap;html=1;" parent="CFD9F3xo60o9tHj610fw-59" vertex="1">
          <mxGeometry y="58" width="160" height="42" as="geometry" />
        </mxCell>
        <mxCell id="CFD9F3xo60o9tHj610fw-63" style="edgeStyle=orthogonalEdgeStyle;rounded=0;orthogonalLoop=1;jettySize=auto;html=1;exitX=0;exitY=0.5;exitDx=0;exitDy=0;entryX=1;entryY=0.5;entryDx=0;entryDy=0;endArrow=block;endFill=0;startArrow=none;startFill=0;" parent="1" source="CFD9F3xo60o9tHj610fw-60" target="CFD9F3xo60o9tHj610fw-12" edge="1">
          <mxGeometry relative="1" as="geometry" />
        </mxCell>
        <mxCell id="CFD9F3xo60o9tHj610fw-67" value="0..*" style="edgeLabel;html=1;align=center;verticalAlign=bottom;resizable=0;points=[];labelBackgroundColor=none;labelPosition=center;verticalLabelPosition=top;" parent="CFD9F3xo60o9tHj610fw-63" vertex="1" connectable="0">
          <mxGeometry x="0.6537" y="1" relative="1" as="geometry">
            <mxPoint as="offset" />
          </mxGeometry>
        </mxCell>
        <mxCell id="CFD9F3xo60o9tHj610fw-68" value="0..*" style="edgeLabel;html=1;align=center;verticalAlign=top;resizable=0;points=[];labelPosition=center;verticalLabelPosition=bottom;" parent="CFD9F3xo60o9tHj610fw-63" vertex="1" connectable="0">
          <mxGeometry x="-0.7799" relative="1" as="geometry">
            <mxPoint as="offset" />
          </mxGeometry>
        </mxCell>
        <mxCell id="CFD9F3xo60o9tHj610fw-64" style="edgeStyle=orthogonalEdgeStyle;rounded=0;orthogonalLoop=1;jettySize=auto;html=1;exitX=0;exitY=0.5;exitDx=0;exitDy=0;entryX=0.992;entryY=0.153;entryDx=0;entryDy=0;entryPerimeter=0;endArrow=block;endFill=0;startArrow=none;startFill=0;" parent="1" source="CFD9F3xo60o9tHj610fw-56" target="CFD9F3xo60o9tHj610fw-10" edge="1">
          <mxGeometry relative="1" as="geometry" />
        </mxCell>
        <mxCell id="CFD9F3xo60o9tHj610fw-65" value="0..*" style="edgeLabel;html=1;align=center;verticalAlign=bottom;resizable=0;points=[];labelBackgroundColor=none;labelPosition=center;verticalLabelPosition=top;" parent="CFD9F3xo60o9tHj610fw-64" vertex="1" connectable="0">
          <mxGeometry x="0.8025" relative="1" as="geometry">
            <mxPoint as="offset" />
          </mxGeometry>
        </mxCell>
        <mxCell id="CFD9F3xo60o9tHj610fw-66" value="0..*" style="edgeLabel;html=1;align=center;verticalAlign=top;resizable=0;points=[];labelBackgroundColor=none;labelPosition=center;verticalLabelPosition=bottom;" parent="CFD9F3xo60o9tHj610fw-64" vertex="1" connectable="0">
          <mxGeometry x="-0.8454" relative="1" as="geometry">
            <mxPoint as="offset" />
          </mxGeometry>
        </mxCell>
      </root>
    </mxGraphModel>
  </diagram>
</mxfile>
